<?xml version="1.0" encoding="UTF-8" standalone="no"?>
<svg
   xmlns:dc="http://purl.org/dc/elements/1.1/"
   xmlns:cc="http://creativecommons.org/ns#"
   xmlns:rdf="http://www.w3.org/1999/02/22-rdf-syntax-ns#"
   xmlns:svg="http://www.w3.org/2000/svg"
   xmlns="http://www.w3.org/2000/svg"
   xmlns:sodipodi="http://sodipodi.sourceforge.net/DTD/sodipodi-0.dtd"
   xmlns:inkscape="http://www.inkscape.org/namespaces/inkscape"
   version="1.1"
   x="0px"
   y="0px"
   viewBox="0 0 92 92"
   xml:space="preserve"
   id="svg16"
   sodipodi:docname="noun_english_1044185.svg"
   width="92"
   height="92"
   inkscape:version="1.0.2 (e86c8708, 2021-01-15)"><metadata
     id="metadata22"><rdf:RDF><cc:Work
         rdf:about=""><dc:format>image/svg+xml</dc:format><dc:type
           rdf:resource="http://purl.org/dc/dcmitype/StillImage" /><dc:title /></cc:Work></rdf:RDF></metadata><defs
     id="defs20" /><sodipodi:namedview
     pagecolor="#ffffff"
     bordercolor="#666666"
     borderopacity="1"
     objecttolerance="10"
     gridtolerance="10"
     guidetolerance="10"
     inkscape:pageopacity="0"
     inkscape:pageshadow="2"
     inkscape:window-width="1080"
     inkscape:window-height="855"
     id="namedview18"
     showgrid="false"
     inkscape:zoom="5.352"
     inkscape:cx="50"
     inkscape:cy="47.552317"
     inkscape:window-x="1080"
     inkscape:window-y="23"
     inkscape:window-maximized="0"
     inkscape:current-layer="svg16"
     inkscape:document-rotation="0" /><path
     d="M 80,1 H 12 C 5.9,1 1,5.6 1,11.3 V 63 c 0,5.7 4.9,10.3 11,10.3 h 7.2 v 15.3 c 0,0.9 0.6,1.8 1.5,2.2 0.4,0.2 0.7,0.2 1.1,0.2 0.6,0 1.2,-0.2 1.7,-0.5 L 46.2,73.3 H 80 c 6.1,0 11,-4.6 11,-10.3 V 11.3 C 91,5.6 86.1,1 80,1 Z M 43.1,51.5 H 21 V 22.3 h 21.4 v 5.2 H 27 v 6.2 h 14.2 v 5.1 H 27 v 7.5 h 16.2 v 5.2 z m 28.4,0 H 65.4 L 53.5,30.8 V 51.5 H 47.8 V 22.3 h 6.4 L 65.8,42.7 V 22.3 h 5.7 z"
     id="path10"
     style="fill:#f5a9b8;fill-opacity:1" /></svg>
