<?xml version="1.0" encoding="UTF-8" standalone="no"?>
<svg
   xmlns:dc="http://purl.org/dc/elements/1.1/"
   xmlns:cc="http://creativecommons.org/ns#"
   xmlns:rdf="http://www.w3.org/1999/02/22-rdf-syntax-ns#"
   xmlns:svg="http://www.w3.org/2000/svg"
   xmlns="http://www.w3.org/2000/svg"
   xmlns:sodipodi="http://sodipodi.sourceforge.net/DTD/sodipodi-0.dtd"
   xmlns:inkscape="http://www.inkscape.org/namespaces/inkscape"
   version="1.1"
   x="0px"
   y="0px"
   viewBox="0 0 92 92"
   xml:space="preserve"
   id="svg46"
   sodipodi:docname="noun_world_3540535.svg"
   width="92"
   height="92"
   inkscape:version="1.0.2 (e86c8708, 2021-01-15)"><metadata
     id="metadata52"><rdf:RDF><cc:Work
         rdf:about=""><dc:format>image/svg+xml</dc:format><dc:type
           rdf:resource="http://purl.org/dc/dcmitype/StillImage" /><dc:title /></cc:Work></rdf:RDF></metadata><defs
     id="defs50" /><sodipodi:namedview
     pagecolor="#ffffff"
     bordercolor="#666666"
     borderopacity="1"
     objecttolerance="10"
     gridtolerance="10"
     guidetolerance="10"
     inkscape:pageopacity="0"
     inkscape:pageshadow="2"
     inkscape:window-width="1080"
     inkscape:window-height="855"
     id="namedview48"
     showgrid="false"
     inkscape:zoom="3.9421203"
     inkscape:cx="84.822285"
     inkscape:cy="70.720589"
     inkscape:window-x="1080"
     inkscape:window-y="23"
     inkscape:window-maximized="0"
     inkscape:current-layer="svg46"
     inkscape:document-rotation="0" /><g
     id="g40"
     transform="matrix(2.0930233,0,0,2.0930233,-4.2325592,-4.2325592)"
     style="fill:#f5a9b8;fill-opacity:1"><path
       d="M 39.99,9.65 C 39.97,9.63 39.95,9.63 39.93,9.62 35.99,5.26 30.32,2.5 24,2.5 17.68,2.5 12.01,5.26 8.07,9.61 8.05,9.63 8.03,9.63 8.01,9.65 7.97,9.69 7.95,9.74 7.91,9.79 4.56,13.58 2.5,18.55 2.5,24 c 0,5.45 2.06,10.42 5.41,14.22 0.04,0.04 0.06,0.1 0.1,0.14 0.02,0.02 0.04,0.02 0.06,0.03 3.94,4.36 9.61,7.11 15.93,7.11 6.32,0 11.99,-2.76 15.93,-7.11 0.02,-0.02 0.04,-0.02 0.06,-0.04 0.04,-0.04 0.06,-0.09 0.1,-0.14 3.36,-3.79 5.41,-8.76 5.41,-14.22 0,-5.46 -2.06,-10.42 -5.41,-14.22 -0.04,-0.03 -0.06,-0.08 -0.1,-0.12 z m -3.16,1.05 c -1.23,1 -2.79,1.83 -4.57,2.46 -0.64,-2.62 -1.53,-4.97 -2.65,-6.79 2.73,0.88 5.19,2.38 7.22,4.33 z M 30.5,24 c 0,2.55 -0.2,4.94 -0.55,7.11 -1.89,-0.39 -3.9,-0.61 -5.95,-0.61 -2.05,0 -4.06,0.21 -5.95,0.61 C 17.7,28.94 17.5,26.55 17.5,24 c 0,-2.55 0.2,-4.94 0.55,-7.11 1.89,0.39 3.9,0.61 5.95,0.61 2.05,0 4.06,-0.21 5.95,-0.61 0.35,2.17 0.55,4.56 0.55,7.11 z M 24,5.5 c 1.98,0 4.1,3.3 5.36,8.46 -1.69,0.35 -3.5,0.54 -5.36,0.54 -1.86,0 -3.67,-0.19 -5.36,-0.54 C 19.9,8.8 22.02,5.5 24,5.5 Z M 18.4,6.37 C 17.28,8.19 16.39,10.54 15.75,13.16 13.97,12.53 12.41,11.7 11.18,10.7 13.2,8.75 15.66,7.25 18.4,6.37 Z M 5.5,24 c 0,-4.14 1.39,-7.96 3.7,-11.05 1.6,1.31 3.64,2.38 5.95,3.15 -0.42,2.54 -0.64,5.24 -0.64,7.89 0,2.65 0.22,5.35 0.64,7.89 C 12.84,32.65 10.8,33.72 9.2,35.03 6.89,31.96 5.5,28.14 5.5,24 Z m 5.67,13.3 c 1.23,-1 2.79,-1.83 4.57,-2.46 0.64,2.62 1.53,4.97 2.65,6.79 C 15.66,40.75 13.2,39.25 11.17,37.3 Z M 24,42.5 c -1.98,0 -4.1,-3.3 -5.36,-8.46 1.69,-0.35 3.5,-0.54 5.36,-0.54 1.86,0 3.67,0.19 5.36,0.54 C 28.1,39.2 25.98,42.5 24,42.5 Z m 5.6,-0.87 c 1.12,-1.82 2.01,-4.17 2.65,-6.79 1.78,0.63 3.34,1.46 4.57,2.46 -2.02,1.95 -4.48,3.45 -7.22,4.33 z m 9.2,-6.58 c -1.6,-1.31 -3.64,-2.38 -5.95,-3.15 0.42,-2.54 0.64,-5.24 0.64,-7.89 0,-2.65 -0.22,-5.35 -0.64,-7.89 2.31,-0.77 4.35,-1.84 5.95,-3.15 2.31,3.09 3.7,6.9 3.7,11.05 0,4.15 -1.39,7.94 -3.7,11.03 z"
       id="path38"
       style="fill:#f5a9b8;fill-opacity:1" /></g></svg>
