<?xml version="1.0" encoding="UTF-8" standalone="no"?>
<svg
   xmlns:dc="http://purl.org/dc/elements/1.1/"
   xmlns:cc="http://creativecommons.org/ns#"
   xmlns:rdf="http://www.w3.org/1999/02/22-rdf-syntax-ns#"
   xmlns:svg="http://www.w3.org/2000/svg"
   xmlns="http://www.w3.org/2000/svg"
   xmlns:sodipodi="http://sodipodi.sourceforge.net/DTD/sodipodi-0.dtd"
   xmlns:inkscape="http://www.inkscape.org/namespaces/inkscape"
   version="1.1"
   x="0px"
   y="0px"
   viewBox="0 0 92 92"
   xml:space="preserve"
   id="svg30"
   sodipodi:docname="noun_spanish_1044259.svg"
   width="92"
   height="92"
   inkscape:version="1.0.2 (e86c8708, 2021-01-15)"><metadata
     id="metadata36"><rdf:RDF><cc:Work
         rdf:about=""><dc:format>image/svg+xml</dc:format><dc:type
           rdf:resource="http://purl.org/dc/dcmitype/StillImage" /><dc:title /></cc:Work></rdf:RDF></metadata><defs
     id="defs34" /><sodipodi:namedview
     pagecolor="#ffffff"
     bordercolor="#666666"
     borderopacity="1"
     objecttolerance="10"
     gridtolerance="10"
     guidetolerance="10"
     inkscape:pageopacity="0"
     inkscape:pageshadow="2"
     inkscape:window-width="1080"
     inkscape:window-height="855"
     id="namedview32"
     showgrid="false"
     inkscape:zoom="3.7844355"
     inkscape:cx="74.27081"
     inkscape:cy="66.253617"
     inkscape:window-x="1080"
     inkscape:window-y="23"
     inkscape:window-maximized="0"
     inkscape:current-layer="svg30"
     inkscape:document-rotation="0" /><path
     d="M 80,1 H 12 C 5.9,1 1,5.6 1,11.3 V 63 c 0,5.7 4.9,10.3 11,10.3 h 7.2 v 15.3 c 0,0.9 0.6,1.8 1.5,2.2 0.4,0.2 0.7,0.2 1.1,0.2 0.6,0 1.2,-0.2 1.7,-0.5 L 46.2,73.3 H 80 c 6.1,0 11,-4.6 11,-10.3 V 11.3 C 91,5.6 86.1,1 80,1 Z M 44.3,51.5 H 22.1 V 22.3 h 21.4 v 5.2 H 28.1 v 6.2 h 14.2 v 5.1 H 28.1 v 7.5 h 16.2 z m 24.4,-1.9 c -2.1,1.8 -5,2.6 -8.7,2.6 -3.8,0 -6.9,-0.9 -9.1,-2.6 -2.2,-1.7 -3.3,-4.1 -3.3,-7.2 h 5.8 c 0.2,1.3 0.6,2.3 1.1,3 1,1.2 2.7,1.8 5.2,1.8 1.5,0 2.7,-0.2 3.6,-0.5 1.7,-0.6 2.6,-1.7 2.6,-3.4 0,-1 -0.4,-1.7 -1.3,-2.2 -0.9,-0.5 -2.2,-1 -4.1,-1.4 L 57.3,39 c -3.1,-0.7 -5.2,-1.4 -6.4,-2.2 -2,-1.3 -3,-3.5 -3,-6.3 0,-2.6 1,-4.8 2.9,-6.5 1.9,-1.7 4.8,-2.6 8.5,-2.6 3.1,0 5.8,0.8 8,2.4 2.2,1.6 3.4,4 3.5,7.1 H 65 c -0.1,-1.8 -0.9,-3 -2.4,-3.7 -1,-0.5 -2.2,-0.7 -3.6,-0.7 -1.6,0 -2.9,0.3 -3.9,1 -1,0.6 -1.4,1.5 -1.4,2.7 0,1 0.5,1.8 1.4,2.3 0.6,0.3 1.9,0.7 3.9,1.2 l 5.1,1.2 c 2.2,0.5 3.9,1.2 5,2.1 1.7,1.4 2.6,3.4 2.6,6 0.1,2.6 -0.9,4.8 -3,6.6 z"
     id="path24"
     style="fill:#f5a9b8;fill-opacity:1" /></svg>
